<mxfile host="Electron" agent="Mozilla/5.0 (Windows NT 10.0; Win64; x64) AppleWebKit/537.36 (KHTML, like Gecko) draw.io/24.7.17 Chrome/128.0.6613.36 Electron/32.0.1 Safari/537.36" version="24.7.17">
  <diagram id="C5RBs43oDa-KdzZeNtuy" name="Page-1">
    <mxGraphModel dx="1434" dy="836" grid="1" gridSize="10" guides="1" tooltips="1" connect="1" arrows="1" fold="1" page="1" pageScale="1" pageWidth="827" pageHeight="1169" math="0" shadow="0">
      <root>
        <mxCell id="WIyWlLk6GJQsqaUBKTNV-0" />
        <mxCell id="WIyWlLk6GJQsqaUBKTNV-1" parent="WIyWlLk6GJQsqaUBKTNV-0" />
        <mxCell id="XnPUL_Tgu4GJJGZuxX2c-4" value="" style="edgeStyle=none;curved=1;rounded=0;orthogonalLoop=1;jettySize=auto;html=1;fontSize=12;startSize=8;endSize=8;" parent="WIyWlLk6GJQsqaUBKTNV-1" source="XnPUL_Tgu4GJJGZuxX2c-0" target="XnPUL_Tgu4GJJGZuxX2c-3" edge="1">
          <mxGeometry relative="1" as="geometry" />
        </mxCell>
        <mxCell id="XnPUL_Tgu4GJJGZuxX2c-0" value="START" style="strokeWidth=2;html=1;shape=mxgraph.flowchart.start_1;whiteSpace=wrap;" parent="WIyWlLk6GJQsqaUBKTNV-1" vertex="1">
          <mxGeometry x="30" y="470" width="100" height="60" as="geometry" />
        </mxCell>
        <mxCell id="XnPUL_Tgu4GJJGZuxX2c-6" value="" style="edgeStyle=none;curved=1;rounded=0;orthogonalLoop=1;jettySize=auto;html=1;fontSize=12;startSize=8;endSize=8;" parent="WIyWlLk6GJQsqaUBKTNV-1" source="XnPUL_Tgu4GJJGZuxX2c-3" target="XnPUL_Tgu4GJJGZuxX2c-5" edge="1">
          <mxGeometry relative="1" as="geometry" />
        </mxCell>
        <mxCell id="XnPUL_Tgu4GJJGZuxX2c-3" value="PROLOG" style="shape=parallelogram;perimeter=parallelogramPerimeter;whiteSpace=wrap;html=1;fixedSize=1;strokeWidth=2;" parent="WIyWlLk6GJQsqaUBKTNV-1" vertex="1">
          <mxGeometry x="170" y="470" width="120" height="60" as="geometry" />
        </mxCell>
        <mxCell id="XnPUL_Tgu4GJJGZuxX2c-8" value="" style="edgeStyle=none;curved=1;rounded=0;orthogonalLoop=1;jettySize=auto;html=1;fontSize=12;startSize=8;endSize=8;" parent="WIyWlLk6GJQsqaUBKTNV-1" source="XnPUL_Tgu4GJJGZuxX2c-5" target="XnPUL_Tgu4GJJGZuxX2c-7" edge="1">
          <mxGeometry relative="1" as="geometry" />
        </mxCell>
        <mxCell id="XnPUL_Tgu4GJJGZuxX2c-5" value="&lt;div&gt;&lt;span style=&quot;white-space: pre;&quot;&gt;&#x9;&lt;/span&gt;Usai PD II yang dimenangkan Oleh pihak sekutu atas blok Axis, dimulailah&amp;nbsp;&lt;span style=&quot;background-color: initial;&quot;&gt;masa perang dingin dimana Amerika Serikat dan USSR mulai menyebarkan&amp;nbsp;&lt;/span&gt;&lt;span style=&quot;background-color: initial;&quot;&gt;pengaruhnya ke negaraâ€¢negara berkembang.&lt;/span&gt;&lt;/div&gt;&lt;div&gt;&lt;br&gt;&lt;/div&gt;&lt;div&gt;Jepang yang masih tjdak terima atas kekalahannya menerima bantuan&amp;nbsp;&lt;span style=&quot;background-color: initial;&quot;&gt;USR dengan menjadi sekutunya. Dengan bantuan tentara Merah Jepang&amp;nbsp;&lt;/span&gt;&lt;span style=&quot;background-color: initial;&quot;&gt;berhasil membersihkan negaranya dari penagruh barat.&lt;/span&gt;&lt;/div&gt;&lt;div&gt;&lt;span style=&quot;background-color: initial;&quot;&gt;&lt;br&gt;&lt;/span&gt;&lt;/div&gt;&lt;div&gt;&lt;span style=&quot;white-space: pre;&quot;&gt;&#x9;&lt;/span&gt;Dengan kembalinya Jepang yang sekarang menjadi sekutu USSR, maka PD&amp;nbsp;&lt;span style=&quot;background-color: initial;&quot;&gt;III pada akhirnya pecah. Perang ini melibatkan blok Barat &quot;Nato&quot; dan&amp;nbsp;&lt;/span&gt;&lt;span style=&quot;background-color: initial;&quot;&gt;&quot;Warsaw&quot;, yang berlangsung selama 153 tahun dengan hasil nihil. Dimana&amp;nbsp;&lt;/span&gt;&lt;span style=&quot;background-color: initial;&quot;&gt;kedua belah pihak hancur karena perbuatan mereka.&lt;/span&gt;&lt;/div&gt;" style="whiteSpace=wrap;html=1;strokeWidth=2;align=left;" parent="WIyWlLk6GJQsqaUBKTNV-1" vertex="1">
          <mxGeometry x="354" y="365" width="366" height="270" as="geometry" />
        </mxCell>
        <mxCell id="gjJ5TRYWmCdCx_4mEXk4-5" value="" style="edgeStyle=orthogonalEdgeStyle;rounded=0;orthogonalLoop=1;jettySize=auto;html=1;" parent="WIyWlLk6GJQsqaUBKTNV-1" source="XnPUL_Tgu4GJJGZuxX2c-7" target="gjJ5TRYWmCdCx_4mEXk4-4" edge="1">
          <mxGeometry relative="1" as="geometry" />
        </mxCell>
        <mxCell id="XnPUL_Tgu4GJJGZuxX2c-7" value="&lt;span style=&quot;white-space: pre;&quot;&gt;&#x9;&lt;/span&gt;Pada tahun 2064, pihak Soviet yang sedang dalam perlobaan luar angkasa dengan Amerika serikat berambisi mengirimkan Kosmonot Mereka untuk membangun kloni di Mars.&amp;nbsp;&lt;span style=&quot;background-color: initial;&quot;&gt;Hal ini bertujuan &lt;/span&gt;&lt;span style=&quot;background-color: initial;&quot;&gt;untuk menjadi manusia pertama yang menginjakkan kakinya di planet Mars.&amp;nbsp;&lt;/span&gt;&lt;span style=&quot;background-color: initial;&quot;&gt;Pengiriman ini di prakarsai oleh presiden Unisoviet Gregory Gatot Murmakhosimov presiden ke-11 Unisoviet.&amp;nbsp;&lt;/span&gt;" style="whiteSpace=wrap;html=1;align=left;strokeWidth=2;" parent="WIyWlLk6GJQsqaUBKTNV-1" vertex="1">
          <mxGeometry x="820" y="500" width="380" height="140" as="geometry" />
        </mxCell>
        <mxCell id="gjJ5TRYWmCdCx_4mEXk4-0" value="" style="shape=image;verticalLabelPosition=bottom;labelBackgroundColor=default;verticalAlign=top;aspect=fixed;imageAspect=0;image=data:image/jpeg,/9j/4AAQSkZJRgABAQAAAQABAAD/2wCEAAkGBxIREhUTEhIVFhUVFRUVFxcSFhUQFRUWFRYWFxYVFhUYHSggGBolHRUVITEhJSkrLi4uFx8zODMsNygtLi0BCgoKDg0OGhAQFS0fHh4tLSstKy0tLS0tKystLS0tLS0tLS0tLS0tLSstKy0tLS0tLS0tLSstLS0tKy0tLSstLf/AABEIANwA5QMBIgACEQEDEQH/xAAcAAABBAMBAAAAAAAAAAAAAAAAAQIFBgMEBwj/xABHEAABAwIDBAcEBgUKBwAAAAABAAIDBBEFITEGEkFRBxMiYXGBkTKhsdEUI3KSwfBCQ1JigggWMzRTVIOTouEVJERjssLx/8QAGQEBAQEBAQEAAAAAAAAAAAAAAAECBAMF/8QAJBEBAAIBBAEFAQEBAAAAAAAAAAECEQMSITFBBBMiUWEyBSP/2gAMAwEAAhEDEQA/AOuAJyEIBCEIEISJyCEDUIIQgLouhaVTi1PF/STxM7nSNafQlBuoUI7a/DxrW0/+a35pP544d/faf/Nb80E4lAUPFtTQO0rKc/4rPmtuLGqV3s1EJ8JGH8UG8hMima72XNP2SD8E2WTkgc+Sy13vuhMJVAhCAqHBKhCAQhCAQhCAQhCAQhCDZBTgmoWQ5CQFKgEIQgFXtv8AGnUVBPOwgSNaAwkBwD3kNabHI6qwrln8oDEdykggBzlm3nDm2Np/9nN9EHIMX2rrqo/X1Urxy3txv3WWHuULZKUiqERZLZCikslCEKh8ZtmMjzGSkabG6qMgx1MzbcpH29L2Uc1ORFxouk3FIsvpAkH/AHY2P94APvVr2X6XnOeGVsbQ05dbFcbve5hvl3g+S5InMKo9aRSBwDmkEEAgjMEHQg8lkAVB6F8RMtCWEk9TI5gvnZrgHgeALjZX9FCEIQCEIQCEIQCEIQCEIQbJCE5NIWQJQUiEDkJqW6BV576dcT63EBED2YImt/jk7bvcWei9BPkDQSTYAEk8gMyV5Fx7EzVVM07tZZHPseAJ7I8hYeSDQSJQnAKoaEJS1BCBqEqAinNTgmgpQUQ9CQIKo6/0C1n9ahNv1Uo5n2mu+DfVdcXnbonxAw4lCOEu9Cf4gS3/AFNb6r0SihCEIBCEIBCE5sZKBqc1hKzNjAT1MjEIe9CyoTIEIQoEISJyEDUJbJLIKr0nYp9GwypePac0RN4ZykMv5AuPkvL67X/KCxSzKamB9oumd4N7LPeXfdXFFQ5iyBYmLZjYiMdkqyOamEIMTghPesZQIEoTUqB4KeFjCcCgltmJ+qq6d/7M8R/1gfivUy8kRvIzGozHiMwvV2HVAlijkGj42P8AvNB/FUbKEIRQlawlZGRc1msoGMiAT0IUAi6xvl5LE519VYhMsxlCFrpVcGW0hCFlQhCEAhCEHnnpVoKupxWbsdlgjZGXEBu5uixB73FxURTdHNbILt6vzeR+C6DjO9JM+R2rnvAvmLA2b5AAKzYFH2b935z4rNrYetdOJcak6N8RZ+qY77MjfxsteTZHEGe1SSfw7r//ABJXoG6XqrrEakt+1V5rqsOnj9uCVvix3yWmXAa5eOS9PuhWpPhsT/aY0+LQVrfP0nsx9vMkslymnTzXoap2XpHa08X3G/JYP5k0P93j+6FPc/D2P15+CcAvQjNhKA/9NH6LZi2BoAf6rH90FXf+JOj+vOYCcvTEWw9DbOli+4E2TY3Dxl9Fi+4E3/ie3+vN0a9K9HtR1mHUruUQb9y7fwVcx3o/oS27YzGb2vES218gbZjVW7Y7CTTUkUG+H7oNnAbtw5xcLjnYrdbZh52ptlLgXWxHHZKxlk5VAhCxPl5KB73gLC95KahawhEqEKoEIQg2kIQsNBCEIBReP4uKZgNiS5wAA7+KlFVNsc5Im8NfeVjUtMV4e2hSLXxKs1EDnPda+vhcG1gOSs1FHuMC1Z4N14IOWQI7+a358gvKbTZ77cMVRWMjaXvNgqzPtgGvsDx04AeXHuS7SUUs4s1263vHvHkq3T4DCx15JB629b6rdbVhJraVvp9sYj7ThdSlNjMcnsuBVCrsHpSLsc0HuctOmDoT2X3Hfr6hYvqR4brp2dOfUA28QnvmAVPwzEC9zQeGZPkt/EsQ3QM1jdw37aedirI83OAHesE+2cDMr3Pgc1zrEKp8ziGHz5Iw/ZlrzeSQnO+Z/FarqR5YvpSvP8/GlwayxHH8bKcocWjnF2ntcRf3jmufzbOx/q355am+imcHw/q3tL9SdQciDr8F6TaJh5bJhZ8Wd9S4+h5Hgcu9SeBECCIXz3G+OnJaOJMIiy1uLcfVaOzVK76XK8uJDWBovoL2NgFIttxH2k03Vmc9LYglI51lge+698OYr5LpiELSBCEKIEIQgEIQg2kIQstBCEIBQ20dNcMfxa63kc/w96mVrYlFvRuHdf0zUtGYb07bbRKhYpG98jGtzPWNPkDcn0BU/Izey/2WkCA5r/2ju6c+P55rdY7h+fBc1Yw7bznCHxXDm7twHH7L3N9ACqu3Zqmc7eEjib5tkc4+RudF0V7cswoiuwyN+e7n6FbmPpKz9ueTbGWm345y1pdfcbpa97XLj8EybBpmPIBG6TwOYHMt0PlZXI7Pknsm3jclblNhAZqLnmsTme4brEV6lH7N4aQwB2tsyn7TYUeqPNWfDKUDgtzE6EPaAQmz4nu/Jxulw6Xe3Re2VznbPjYa28QsNXg9YakRsv1W8B1m8xjd3idb6XysugV2Duabs/8AqihFVtd2WNHjf8AkYr4LfPzhhj2JqC4mnmuzKxcXNffjpkR4hXfCsJe1rRKQ5zRqB8io/Co6txHWSMaOIbdx9TorbSQBoyNzzJut1rE84eOpaY4yjcWqTG1o4F1vctnBI90PeR7TvWwWvicBkI5NcSfRSELbNAVpXN8saloimI8sj3XSIQuhyhCEKoEIQoBCEIBCEINpCELLQQhCASOFwlQgq08I37W9nXuKxRyWcpvFKO4LwbWzIt7VuKrUjuK5rxtl20mLQ35aq61ZJgeNlD1leQVoOrHPs0HXkpue8U4TMmJXdutdmTbJTkNEWgdonnfNV2hw4MFwM8jc63Cy1e1D4nbr43W/aaLhekcRyxMZn4rfTta1Sbow5uiojdomvF2uB8FsHbOOFnbeB55+Q4rW+vTFtG08wksdZLG3rW2s3UEcO4qMpsTZIMwAVmk2h+lQuawHdcCL2sPeqfWh0Lt4XtoQsWnzD0pTxbtdoKhoKm6WoaW5arm9Li3f6qwYTWbyz7jOppcZWkgHLwPjZKtejfcG+q2F0afWXFqd4KhCFt5BCEIBCEIBCEIBCEINpCELLQQhCAQhCBk0e80t5gj1VHJIuORV7VQ2lpurl3gOy/Pz4/PzXjqxxl0entzhC1cO9e2XzWlQubETv6njrot102ajMSZ1hsMr6kZLwicO3uFmpZmuGvBJU0rXg3GSrdNgDwB1dRK0953gfULZfhVS3Soue+7V7xaZjiHlGnmezZtm2ONxcfZNvgtrD9mYWnec255ntFa/0etGjmnzHyWSGnryMnsbbm4D8FNv49JrbH9LCyBrRYZDRQ+K0bHA7xsOa0n0WIu/XxAc90v9NFp1WHSg9uoc7wAb8FLWecVmJ7awoLEgHQjTkVbcIphGBne4vy5KIooGtsBx1Kn8Ob1jgB+QOK8Y5nDd7cLBRNs2/NbCRosLJV31jEYfMtOZyEIQqyEIQgEIQgEJFkZFfVUY0q2AwBCmVwchCFlQhCEAhC0sYxWGkhdNO8MjYMydSeDWji46ABBjx/G4KKF09Q/dY3zLidGtHElRj6l1ZhwqXxGLetIxhO84R3s0u7yDe3C4XBNvtsJMTn33AthYSIo7+y06udzeePLQL09TxNfAGW7Log23cW2V25ha2xZzB45pWQXzC3cSoiwkOGbSQe+3H8fNalJNumxXDNcTh9OLZjKSgbYLDWVZaNLjvW6xwIWtUUpPEK8+GYxnlDS4sB+i4eGaz0OKbxyYT3u09Es2Gkngt+jw4iyTaz0mYw2etc4XKjqyMngp6KnDRZR2JOtkNSpLyrPKFponk24Eq94RQ9UwX9ogX7u5VqkfHTtdUS33IxvO3QXbrbgbxA4C4urdSVTJWNkje17HC7XNO8CDxBXvoUjtz+p1Jn4wzIQhdLkCEIUAhCEAla26VjLrOG2TKmsjsnoSF1llSoWMvQrhMsiEJk0rWAuc4NaMyXENA8SVFPQqFtD0sUFNdsTjUv5Q26vzlOVvC65tj3SziFRcRObTs5RAOefGRwPuAVwO57RY9BQwmaofutGgGbnng1jeJXnPbfbGfEpd5/ZiaT1cQN2sH7R5vPE+QUFV1ckrt+WR8jz+lI4vd6la6YQ2Reutl6nrKWB99Y2fALyM5emOiCr63DYTe+6C37pIXrXmkpPaZ2kw7fbvtHaAzA4j5hUGqIbrpwPL/ZdWlVJ2owbdO+wdk6j9k8/A+5eGrpzMbodXp9WI+NkLDV2FvQrIK82UQW2Nh5tPxCbKxwzHyK581l2bZSrsVIWSPGlWJnO7/VLS073nj6rPx+29vC2xYre/PkmsuTnmT7lq0WHkAXUxQU4urx1DxxjlO4ZhLZqeaNwBEsb4zfO++0g/ELhux2102GSOjdeSLec2SMm1nNJaXMvo7LwK9K0cAjYG8tfHivLm3VO2LE62Nun0h7h/iWeR6uK6tOMRh8+85nLtGG7fYdPa1S1jj+jNeJ1+XayPkVZGPDgC0gg5gg3B8CF5We0HIqT2c2nq8OcDBJ9Xe5jd2o3c+z+ie8WK2y9MIXO8E6WqSUAVDHwuyuR9bGT3EZjzCu+GYtT1Ld6CaOQfuODreI1CI3U+Nl0kbL+C2LKTKgIJSONlic66kQZOc9MQhaZCEIQcl2j6aDm2hg5jrage9sYPxPkuZY5tFV1ji6onfJyaXERj7MY7I9LqMTbJhoICEqBEiVIVAFdc6Ececxj6fUB9/Dez+a5GrX0YV/U1zGk2Eo3fO9x+K9tCY3Ynyzbp6ajN9UyeEEEcCslNm0LKQs5xI51tJg3V9toO6M8tW945hQUFRwcB4jQ9661NSh2RCoG02EQwP+rljDnH+hL2h9zxY29z4Lw19KLfKvbt9Prz/NkBM9l1IUE7QMgFD1MOfEeIW3QQHKwJXBicu+cTCwMNzr6aKX2YZ105t7EWvIvOg8tVX5WvbEXktjYNZHnJo425m3BR+znS1SU9oBSy7m8frWkOc/PN5ZrnqurSpPcuPWtmMVdnXljpLpnRYtVhx9qTfH2XgEfnuXpfCMZgqmb8MgcOI0c3uc05hcE6d6fdxQO/tKeJ3mHPafgF0VcUqI03Q5YgVlabrSGGO2mifBM5h3mOcx3BzHFjh4EG6YXkmwPiU8NQXTAulGvprNe5s7Bwmvv/AOYM/W66PgHSlQ1NmyEwSHhL7B8JBl62XAClBUwPV7ZA4Aggg6EZgjuKVeasA2oq6L+rzFrf7NwEkZ/hOnlZXnCemB4cBVU7dz9J8JIc397cdqO4G6YR1xCw0dUyVjZI3BzHtDmuGYLSLghZkQIQhQeREFCCFYaCbvpQlUCBBSFqUIEWSmnMb2SN1Y5rx4tII+CxoVifI9bbKV7aimilbo9jXDzAKx49tVT0t2l2/J/Zx2J8zoFxro/xGqnpTTsmc2OIltm2Bs7tC51tmR5K3UOzjQN8DtD2hx8e9dddCLfKZ4lnMQitp8bxWtBEUgp4v2Yd5ryP3pNfSy5tLRzQv+s1uTvuJcbj9453Xe6WmFt0tHi3j5cFVtr9l45mnO2dwdLFNT0tbR8e3vo68UtzCix7V1JAG+0huW9I0X9Rqpag2mmyu1kg/dDme+6qNbA6F5ZI25B7I4EcHLapZSMnOP2G/nJfI1ItWee329GuneOuFr2zx6StZGwxmOGPNzAeyXAG17ahJs9sLL1YqZG7u8LtDsrNPHuv8FKbB4ZHU1cbXx9hjXSkOzBLLBoI45uB8l1/Eod6PcAzdkF0+nvutvs4vX7NGfa04/ZcRpqeqhf19OXs3XWBbcA2zO8OI7ioHpJ2gfXPppJYw17I3xktvZ/aBBsdNT6rvGLYUG0/UsyaAS42zN9fC64R0k0giMIA4u+A+S7rVpfTm8eHy92ZxKoJwSNTlyqS1lkY5JZK0IEcMym2WRxzTSiEanFyYmyHI+CZV2ToLxcyU0tM436lwey+ojk4eAcHeq6cuEdBc5bXOZwfTPv4tfGR8T6ru6iSEJQ0oUTDyGhCFYaJZKgoUCJUIQJZInFNQXnogrC2tMN7CZhtfTeZ2gPTeXcJYXMIe1viOY8F5m2dqXRVVO9hs5s0dvNwB9xK9WULt9ua6NO8xVmY5RrwAOsjF2/pN4jw70lRRxVLCWusT+bOC3ZIwx3Zyv6KHxUdU8PZ2SSL20PkvaszM8TywoG2Oycm64hgu25a4HT14Ln9A8tdZozGrnc+K73jMxMLidd0/BcLLQJA6wuXOvllkeS5/XxFoi8xz0+r/mWtMzGenUOiY/8AOG7w4mB+huMnxldaY25v6LiOxUnU1tOWNaN94Y6wt2XtO8MvAei7i3RcejPwa/1KzGvz5hqV4uCuBdMkdpIvE/Arv1ZoVwjpr9uLx+a79Kf+do/Hyp7c4anBNanBeDRQnhMTmoEOqVIUIEcsU5yKzOWvU+yVJVeuhAj/AIiBxNPKB3m8Z+AK9AtZZeY+jmqdFiNI5hzMrWHva/suHoV6eWZAhCEV/9k=;" parent="WIyWlLk6GJQsqaUBKTNV-1" vertex="1">
          <mxGeometry x="971" y="180" width="229" height="220" as="geometry" />
        </mxCell>
        <mxCell id="gjJ5TRYWmCdCx_4mEXk4-1" value="" style="curved=1;endArrow=classic;html=1;rounded=0;exitX=0.221;exitY=-0.007;exitDx=0;exitDy=0;exitPerimeter=0;" parent="WIyWlLk6GJQsqaUBKTNV-1" source="XnPUL_Tgu4GJJGZuxX2c-7" edge="1">
          <mxGeometry width="50" height="50" relative="1" as="geometry">
            <mxPoint x="810" y="330" as="sourcePoint" />
            <mxPoint x="960" y="300" as="targetPoint" />
            <Array as="points">
              <mxPoint x="910" y="440" />
              <mxPoint x="880" y="370" />
              <mxPoint x="890" y="320" />
            </Array>
          </mxGeometry>
        </mxCell>
        <mxCell id="gjJ5TRYWmCdCx_4mEXk4-2" value="Referensi&amp;nbsp;&lt;div&gt;Gregory Gatot Murmakhosimov&lt;/div&gt;" style="text;html=1;align=center;verticalAlign=middle;whiteSpace=wrap;rounded=0;" parent="WIyWlLk6GJQsqaUBKTNV-1" vertex="1">
          <mxGeometry x="970" y="420" width="219" height="30" as="geometry" />
        </mxCell>
        <mxCell id="gjJ5TRYWmCdCx_4mEXk4-7" value="" style="edgeStyle=orthogonalEdgeStyle;rounded=0;orthogonalLoop=1;jettySize=auto;html=1;" parent="WIyWlLk6GJQsqaUBKTNV-1" source="gjJ5TRYWmCdCx_4mEXk4-4" target="gjJ5TRYWmCdCx_4mEXk4-6" edge="1">
          <mxGeometry relative="1" as="geometry" />
        </mxCell>
        <mxCell id="gjJ5TRYWmCdCx_4mEXk4-4" value="&lt;span style=&quot;white-space: pre;&quot;&gt;&#x9;&lt;/span&gt;&lt;div&gt;&lt;span style=&quot;white-space: pre;&quot;&gt;&#x9;&lt;/span&gt;Mc merupakan seorang ilmuan dari Roscosmos, yang ditugaskan di bagian penelitaian sumbaerdaya alam. Mereka menemukan bahwa di Mars trkandung zat mineral yang diberinama kristal Koldan.&amp;nbsp;&lt;div&gt;&lt;br&gt;&lt;/div&gt;&lt;div&gt;&lt;span style=&quot;white-space: pre;&quot;&gt;&#x9;&lt;/span&gt;Sehingga ia melaporkan temuannya kepada pihak instansi. Dua hari berselang pada saat melakukan penelitiannya di lab&amp;nbsp;&lt;span style=&quot;background-color: initial;&quot;&gt;kemudian ia tiba-tiba&lt;/span&gt;&lt;span style=&quot;background-color: initial;&quot;&gt;&amp;nbsp;&lt;/span&gt;&lt;span style=&quot;background-color: initial;&quot;&gt;dipanggil untuk menghadap presiden sekarang juga. Saat memasuki ruag rapat terdapat beberapa tentara yang nberjaga di depan pintu. Aura suram diselimuti aroma perpaduan antara bau tembakau dan alkohol yang menyengat semerbak setelah pintu tersrebut dibuka.&amp;nbsp;&lt;/span&gt;&lt;/div&gt;&lt;/div&gt;&lt;div&gt;&lt;span style=&quot;background-color: initial;&quot;&gt;&lt;br&gt;&lt;/span&gt;&lt;/div&gt;&lt;div&gt;&lt;span style=&quot;background-color: initial;&quot;&gt;&lt;span style=&quot;white-space: pre;&quot;&gt;&#x9;&lt;/span&gt;Terlihat sebuah meja panjang yang dipenuhi jajaran mentri, staff&amp;nbsp; khusus, serta beberapa petinggi militer sedang mendiskusikan berbagai masalah. Sedangkan dipojokan terlihat juga seorang pria obesitas berrambut tipis (botak ditengah) sedang memangku seorang wanita.&lt;/span&gt;&lt;/div&gt;" style="whiteSpace=wrap;html=1;align=left;strokeWidth=2;" parent="WIyWlLk6GJQsqaUBKTNV-1" vertex="1">
          <mxGeometry x="1370" y="380" width="380" height="290" as="geometry" />
        </mxCell>
        <mxCell id="gjJ5TRYWmCdCx_4mEXk4-6" value="&lt;div&gt;&lt;span style=&quot;white-space: pre;&quot;&gt;&#x9;&lt;/span&gt;MC kemudian menjelaskan mengapa kristal Koldan&amp;nbsp;&lt;br&gt;&lt;/div&gt;&lt;div&gt;Atas mandat dari presiden, Gregory Murmakhosimov mereka diperintahkan untuk segera melakukan ekspedisi secepatnya. Sebab pihak Amerika juga sedang menincar sumber daya di Mars.&lt;/div&gt;&lt;div&gt;&lt;br&gt;&lt;/div&gt;" style="whiteSpace=wrap;html=1;align=left;strokeWidth=2;" parent="WIyWlLk6GJQsqaUBKTNV-1" vertex="1">
          <mxGeometry x="1910" y="400" width="340" height="140" as="geometry" />
        </mxCell>
        <mxCell id="gjJ5TRYWmCdCx_4mEXk4-9" value="" style="curved=1;endArrow=classic;html=1;rounded=0;exitX=0.324;exitY=0.003;exitDx=0;exitDy=0;exitPerimeter=0;" parent="WIyWlLk6GJQsqaUBKTNV-1" source="gjJ5TRYWmCdCx_4mEXk4-4" edge="1">
          <mxGeometry width="50" height="50" relative="1" as="geometry">
            <mxPoint x="1480" y="340" as="sourcePoint" />
            <mxPoint x="1530" y="290" as="targetPoint" />
            <Array as="points">
              <mxPoint x="1530" y="340" />
              <mxPoint x="1480" y="290" />
            </Array>
          </mxGeometry>
        </mxCell>
        <mxCell id="gjJ5TRYWmCdCx_4mEXk4-10" value="ada 2 versi cwk yang dipangku presiden Garot&lt;div&gt;Versi toples &amp;amp; aman&lt;/div&gt;" style="text;html=1;align=center;verticalAlign=middle;whiteSpace=wrap;rounded=0;" parent="WIyWlLk6GJQsqaUBKTNV-1" vertex="1">
          <mxGeometry x="1530" y="240" width="160" height="75" as="geometry" />
        </mxCell>
      </root>
    </mxGraphModel>
  </diagram>
</mxfile>
